<svg xmlns="http://www.w3.org/2000/svg" viewBox="0 0 16 16" fill="currentColor">
  <path d="M9.56 1.19a1 1 0 0 0-1.12 0l-.58.4a1 1 0 0 1-1.02.06l-.66-.31a1 1 0 0 0-1.1.2l-.74.74a1 1 0 0 0-.2 1.1l.31.66a1 1 0 0 1-.06 1.02l-.4.58a1 1 0 0 0 0 1.12l.4.58a1 1 0 0 1 .06 1.02l-.31.66a1 1 0 0 0 .2 1.1l.74.74a1 1 0 0 0 1.1.2l.66-.31a1 1 0 0 1 1.02.06l.58.4a1 1 0 0 0 1.12 0l.58-.4a1 1 0 0 1 1.02-.06l.66.31a1 1 0 0 0 1.1-.2l.74-.74a1 1 0 0 0 .2-1.1l-.31-.66a1 1 0 0 1 .06-1.02l.4-.58a1 1 0 0 0 0-1.12l-.4-.58a1 1 0 0 1-.06-1.02l.31-.66a1 1 0 0 0-.2-1.1l-.74-.74a1 1 0 0 0-1.1-.2l-.66.31a1 1 0 0 1-1.02-.06l-.58-.4zM8 10.5a2.5 2.5 0 1 1 0-5 2.5 2.5 0 0 1 0 5z"/>
</svg>
